# xmcd
#
# Track frame offsets:
#	150
#	11672
#	22528
#	37432
#	54079
#	66294
#	79536
#	93253
#	104190
#	114194
#	125928
#	138325
#	150322
#	162649
#	176167
#
# Disc length: 2511 seconds
# Revision: 0
# Processed by: cddbd v1.5.2PL0 Copyright (c) Steve Scherf et al.
# Submitted via: dBpowerAMP V12.0
#
DISCID=c309cd0f
DTITLE=Carolina Special - Carolina Sunset
DYEAR=2003
DGENRE=Country
TTITLE0=Carolina Sunset
TTITLE1=Dixie Holiday
TTITLE2=Thinking About You
TTITLE3=Man of Constant Sorrow
TTITLE4=Bending the Strings
TTITLE5=Bluebirds Are Singing for Me
TTITLE6=Will You Be Lovin' Another Man
TTITLE7=Give Me the Flowers While I'm Living
TTITLE8=Little Marrowbone Creek
TTITLE9=Have You Come to Say Goodbye
TTITLE10=Toy Heart
TTITLE11=Trail of Sorrow
TTITLE12=My Little Girl in Tennessee
TTITLE13=I Heard My Mother Call My Name in Prayer
TTITLE14=Dixie Home
EXTD=
EXTT0=
EXTT1=
EXTT2=
EXTT3=
EXTT4=
EXTT5=
EXTT6=
EXTT7=
EXTT8=
EXTT9=
EXTT10=
EXTT11=
EXTT12=
EXTT13=
EXTT14=
PLAYORDER=
